<svg xmlns="http://www.w3.org/2000/svg" width="920" height="500" viewBox="0 0 920 500" role="img" aria-labelledby="title desc">
<title id="title">Phase 2.1 language corpus</title><desc id="desc">Bar chart showing sample counts for nine controlled-language benchmark categories.</desc>
<rect width="100%" height="100%" fill="#ffffff"/>
<style>
text{font-family:-apple-system,BlinkMacSystemFont,"Segoe UI",Arial,sans-serif;fill:#1f2328}
.title{font-size:20px;font-weight:700}.label{font-size:13px}.small{font-size:11px;fill:#57606a}
.grid{stroke:#d0d7de;stroke-width:1}.axis{stroke:#57606a;stroke-width:1.2}
</style>
<text class="title" x="36" y="38">Phase 2.1 — Controlled-language corpus</text>
<text class="small" x="36" y="60">189 frozen samples spanning valid, ambiguous, unsupported and malformed language</text>
<line class="axis" x1="70" y1="410" x2="890" y2="410"/><line class="axis" x1="70" y1="90" x2="70" y2="410"/>
<line class="grid" x1="70" y1="330" x2="890" y2="330"/><line class="grid" x1="70" y1="250" x2="890" y2="250"/><line class="grid" x1="70" y1="170" x2="890" y2="170"/><line class="grid" x1="70" y1="90" x2="890" y2="90"/>
<text class="small" x="42" y="414">0</text><text class="small" x="35" y="334">10</text><text class="small" x="35" y="254">20</text><text class="small" x="35" y="174">30</text><text class="small" x="35" y="94">40</text>
<rect x="95" y="106" width="62" height="304" fill="#0969da"/><text class="small" x="126" y="99" text-anchor="middle">38</text>
<rect x="183" y="90" width="62" height="320" fill="#0969da"/><text class="small" x="214" y="83" text-anchor="middle">40</text>
<rect x="271" y="218" width="62" height="192" fill="#1a7f37"/><text class="small" x="302" y="211" text-anchor="middle">24</text>
<rect x="359" y="266" width="62" height="144" fill="#1a7f37"/><text class="small" x="390" y="259" text-anchor="middle">18</text>
<rect x="447" y="322" width="62" height="88" fill="#1a7f37"/><text class="small" x="478" y="315" text-anchor="middle">11</text>
<rect x="535" y="266" width="62" height="144" fill="#8250df"/><text class="small" x="566" y="259" text-anchor="middle">18</text>
<rect x="623" y="282" width="62" height="128" fill="#cf222e"/><text class="small" x="654" y="275" text-anchor="middle">16</text>
<rect x="711" y="266" width="62" height="144" fill="#cf222e"/><text class="small" x="742" y="259" text-anchor="middle">18</text>
<rect x="799" y="362" width="62" height="48" fill="#bf8700"/><text class="small" x="830" y="355" text-anchor="middle">6</text>
<g class="small" text-anchor="middle">
<text x="126" y="438">atomic</text><text x="214" y="438">paraphrase</text><text x="302" y="438">unit</text><text x="390" y="438">sequence</text><text x="478" y="438">composition</text><text x="566" y="438">ambiguous</text><text x="654" y="438">unsupported</text><text x="742" y="438">malformed</text><text x="830" y="438">unknown</text>
</g>
<text class="small" x="480" y="478" text-anchor="middle">All 189 expected compiler outcomes and canonical Mission IRs matched.</text>
</svg>